<svg width="180" height="67" viewBox="0 0 487 148" fill="none" xmlns="http://www.w3.org/2000/svg"><path d="M144.307 44.0509H165.577C178.867 44.0509 189.547 54.5409 189.547 67.8309C189.547 81.1209 178.857 91.7009 165.577 91.7009H156.337V112.301H144.307V44.0509ZM165.577 80.3509C172.217 80.3509 177.607 75.2509 177.607 67.8409C177.607 60.4309 172.217 55.0409 165.577 55.0409H156.337V80.3609H165.577V80.3509Z" fill="#012121"></path><path d="M194.727 85.6409C194.727 70.0409 205.897 57.5309 221.007 57.5309C230.437 57.5309 237.757 62.6309 241.127 69.6609H241.507V59.0709H253.247V112.311H241.507V101.911H241.127C236.507 110.291 229.577 113.751 221.007 113.751C205.897 113.751 194.727 101.241 194.727 85.6409ZM239.777 85.6409C239.777 76.0109 233.137 68.8909 223.507 68.8909C213.877 68.8909 207.427 76.0109 207.427 85.6409C207.427 95.2709 213.977 102.391 223.507 102.391C233.037 102.391 239.777 95.1709 239.777 85.6409Z" fill="#012121"></path><path d="M292.617 85.4509C292.617 69.8509 305.327 57.6309 321.597 57.6309C337.867 57.6309 350.577 69.8609 350.577 85.8409C350.577 86.7109 350.477 88.2509 350.197 89.6909H305.527C306.877 97.0109 313.707 102.491 321.797 102.491C328.147 102.491 333.447 99.5109 335.947 94.1109H349.237C345.487 105.571 334.897 113.751 321.607 113.751C305.337 113.751 292.627 101.041 292.627 85.4509H292.617ZM337.197 80.5409C336.137 74.1909 329.877 68.8909 321.407 68.8909C312.937 68.8909 306.577 73.8009 305.717 80.5409H337.197Z" fill="#012121"></path><path d="M266.757 53.5509L278.787 44.0509V101.041H287.567V112.301H266.747V53.5409L266.757 53.5509Z" fill="#012121"></path><path d="M428.337 85.4509C428.337 69.8509 441.047 57.6309 457.317 57.6309C473.587 57.6309 486.297 69.8609 486.297 85.8409C486.297 86.7109 486.197 88.2509 485.917 89.6909H441.247C442.597 97.0109 449.427 102.491 457.517 102.491C463.867 102.491 469.167 99.5109 471.667 94.1109H484.957C481.207 105.571 470.617 113.751 457.327 113.751C441.057 113.751 428.347 101.041 428.347 85.4509H428.337ZM472.907 80.5409C471.847 74.1909 465.587 68.8909 457.117 68.8909C448.647 68.8909 442.287 73.8009 441.427 80.5409H472.907Z" fill="#012121"></path><path d="M360.497 53.5509L372.597 44.0509V59.0809H385.647V70.3409H372.597V101.041H385.357V112.301H360.497V53.5409V53.5509Z" fill="#012121"></path><path d="M396.187 53.5509L408.287 44.0509V59.0809H421.337V70.3409H408.287V101.041H421.047V112.301H396.187V53.5409V53.5509Z" fill="#012121"></path><path d="M95.8474 36.2609C95.8474 36.2609 95.8474 36.2209 95.8474 36.2009C95.8474 36.2009 95.8474 36.2009 95.8474 36.1809C95.8474 34.3209 95.6474 33.9409 95.4274 33.2109C95.0974 32.0909 94.2074 30.5509 92.6974 29.3809C92.6974 29.3809 93.7674 32.2409 91.0074 33.7809L57.5274 52.6209L91.1374 71.5909C93.7274 73.1509 92.6974 75.9109 92.6974 75.9109C94.2074 74.7409 95.0874 73.2009 95.4274 72.0809C95.6374 71.3709 95.8474 70.9709 95.8474 69.1109C95.8474 69.1109 95.8474 69.1109 95.8474 69.1009C95.8474 69.0809 95.8474 69.0609 95.8474 69.0409V36.2609Z" fill="#441647"></path><path d="M92.6974 75.9109C92.6974 75.9109 93.7274 73.1509 91.1374 71.5909L57.5274 52.6209L4.44741 82.4909C1.91741 83.9209 0.347412 86.5909 0.347412 89.5009V123.701C0.347412 123.701 0.347412 123.701 0.347412 123.711C0.417412 125.161 0.967412 126.411 1.19741 126.881C1.82741 128.121 2.65741 129.031 3.53741 129.691C3.53741 129.691 1.24741 127.481 4.93741 125.391L91.7274 76.5409C92.4674 76.1209 92.6874 75.8909 92.6874 75.8909L92.6974 75.9109Z" fill="#1F7A78"></path><path d="M4.94741 125.401C1.28741 127.471 3.48741 129.651 3.53741 129.701C3.82741 129.921 4.12741 130.121 4.45741 130.301L33.3474 146.561C35.7474 147.911 38.7274 146.181 38.7274 143.421V106.401L4.94741 125.401Z" fill="#043736"></path><path d="M91.0074 33.7809C93.6674 32.3009 92.7674 29.5809 92.6974 29.3809C92.3874 29.1409 92.0774 28.9409 91.7274 28.7509L43.7474 1.80091C41.3774 0.470912 38.4874 0.420912 36.0774 1.68091L4.55739 18.1509C4.55739 18.1509 4.52739 18.1709 4.51739 18.1809C3.02739 19.0009 2.21739 20.0809 1.90739 20.4709C1.15739 21.4509 0.627388 22.8109 0.447388 24.0009C0.447388 24.0009 1.78739 21.1609 4.92739 22.9309L57.5274 52.6209L91.0074 33.7809Z" fill="#7E5C8E"></path><path d="M91.0074 33.7809C93.6674 32.3009 92.7674 29.5809 92.6974 29.3809C92.3874 29.1409 92.0774 28.9409 91.7274 28.7509L43.7474 1.80091C41.3774 0.470912 38.4874 0.420912 36.0774 1.68091L4.55739 18.1509C4.55739 18.1509 4.52739 18.1709 4.51739 18.1809C3.02739 19.0009 2.21739 20.0809 1.90739 20.4709C1.15739 21.4509 0.627388 22.8109 0.447388 24.0009C0.447388 24.0009 1.78739 21.1609 4.92739 22.9309L57.5274 52.6209L91.0074 33.7809Z" fill="#7E5C8E"></path><path d="M83.7874 67.4409L83.8274 67.4609L83.7874 67.4409Z" fill="#7E5C8E"></path><path d="M4.92741 22.9309C1.91741 21.2309 0.557412 23.7709 0.447412 24.0009C0.387412 24.4109 0.347412 24.8109 0.347412 25.2309V57.4309C0.347412 60.1909 3.31741 61.9309 5.72741 60.5709L38.7274 42.0009L4.92741 22.9309Z" fill="#043736"></path></svg>