<svg width="191" height="49" viewBox="0 0 191 49" fill="none" xmlns="http://www.w3.org/2000/svg"><path d="M65.8448 12.2483C65.3768 12.2483 64.9381 12.4761 64.6688 12.8589C64.3996 13.2417 64.3335 13.7316 64.4916 14.1721L73.8896 40.3409C74.0946 40.9119 74.636 41.2928 75.2428 41.2928H80.5165C81.1226 41.2928 81.6636 40.9127 81.8692 40.3425L91.3018 14.1737C91.4606 13.7331 91.3949 13.2428 91.1257 12.8596C90.8565 12.4764 90.4175 12.2483 89.9492 12.2483H84.9724C84.3612 12.2483 83.8168 12.6348 83.6151 13.2118L77.8776 29.6304L72.1047 13.2093C71.9023 12.6336 71.3585 12.2483 70.7483 12.2483H65.8448Z" fill="white" stroke="white" stroke-width="2.87563" stroke-linejoin="round"></path><path d="M87.4808 29.5558C87.4808 29.5938 87.4823 29.6315 87.4852 29.6687C87.5465 36.4183 93.1014 41.8441 100.102 41.8441C105.85 41.8441 110.486 38.3095 112.127 33.3258C112.242 32.9769 112.218 32.601 112.067 32.2736C112.306 32.0688 112.479 31.7853 112.543 31.4575C112.671 30.8013 112.716 30.1171 112.716 29.7053C112.716 22.7352 107.119 17.4515 100.098 17.4515C93.0916 17.4515 87.4808 22.7182 87.4808 29.5558ZM96.0493 32.6193H104.147C103.397 33.8909 102.002 34.6513 100.176 34.6513C98.4208 34.6513 96.9194 33.8252 96.0493 32.6193ZM100.021 24.6444C101.75 24.6444 103.072 25.3215 103.87 26.2354H96.1127C96.8769 25.3071 98.2112 24.6444 100.021 24.6444Z" fill="white" stroke="white" stroke-width="2.87563" stroke-linejoin="round"></path><path d="M113.583 19.4415V19.4453V39.8542C113.583 40.6483 114.227 41.292 115.021 41.292H119.7C120.494 41.292 121.138 40.6483 121.138 39.8542V25.2003H127.389C128.183 25.2003 128.827 24.5566 128.827 23.7625V19.4453C128.827 18.6512 128.183 18.0075 127.389 18.0075H115.127C115.092 18.0049 115.056 18.0037 115.021 18.0037C114.227 18.0037 113.583 18.6474 113.583 19.4415Z" fill="white" stroke="white" stroke-width="2.87563" stroke-linejoin="round"></path><path d="M141.437 29.5558C141.437 29.5938 141.438 29.6315 141.441 29.6688C141.502 36.4184 147.057 41.8441 154.058 41.8441C159.806 41.8441 164.442 38.3095 166.083 33.3258C166.198 32.9769 166.174 32.601 166.023 32.2736C166.262 32.0688 166.434 31.7853 166.499 31.4575C166.627 30.8013 166.672 30.1171 166.672 29.7053C166.672 22.7352 161.075 17.4515 154.054 17.4515C147.047 17.4515 141.437 22.7182 141.437 29.5558ZM150.005 32.6193H158.103C157.353 33.8909 155.958 34.6513 154.131 34.6513C152.377 34.6513 150.875 33.8252 150.005 32.6193ZM153.977 24.6444C155.706 24.6444 157.028 25.3215 157.826 26.2354H150.069C150.833 25.3071 152.167 24.6444 153.977 24.6444Z" fill="white" stroke="white" stroke-width="2.87563" stroke-linejoin="round"></path><path d="M176.693 19.7788L172.532 12.9356C172.271 12.5066 171.805 12.2448 171.303 12.2448H165.805C165.277 12.2448 164.792 12.5344 164.541 12.9992C164.289 13.4639 164.313 14.0289 164.603 14.4707L172.476 26.4845L164.122 39.0596C163.829 39.501 163.802 40.0678 164.052 40.5347C164.303 41.0017 164.79 41.2931 165.319 41.2931H170.817C171.313 41.2931 171.775 41.0371 172.037 40.6159L176.685 33.1601L181.333 40.6159C181.595 41.0371 182.056 41.2931 182.553 41.2931H188.05C188.58 41.2931 189.066 41.0022 189.317 40.536C189.567 40.0698 189.542 39.5035 189.25 39.062L180.933 26.4892L188.809 14.4707C189.099 14.0289 189.123 13.4639 188.872 12.9992C188.621 12.5344 188.135 12.2448 187.607 12.2448H182.109C181.609 12.2448 181.144 12.5051 180.883 12.9321L176.693 19.7788Z" fill="white" stroke="white" stroke-width="2.87563" stroke-linejoin="round"></path><path d="M129.4 17.3289V39.8552C129.4 40.6493 130.044 41.293 130.838 41.293H140.429C141.223 41.293 141.867 40.6493 141.867 39.8552V35.5378C141.867 34.7437 141.223 34.1 140.429 34.1H136.944V25.2045H140.541C141.335 25.2045 141.978 24.5607 141.978 23.7667V19.4493C141.978 18.6552 141.335 18.0115 140.541 18.0115H136.944V13.6864C136.944 13.1368 136.631 12.6354 136.137 12.3943C135.643 12.1532 135.055 12.2148 134.622 12.5528L130.03 16.1353C129.65 16.394 129.4 16.8303 129.4 17.3251V17.3289Z" fill="white" stroke="white" stroke-width="2.87563" stroke-linejoin="round"></path><path d="M58.0017 3.18071C57.1298 1.80041 55.6291 0.972229 53.9857 0.972229H37.1307C35.1208 0.972229 33.2613 2.13398 32.3933 3.93605L32.3817 3.96289L32.3701 3.98972L27.6713 14.2231L27.3935 13.5828C26.5255 11.7808 24.666 10.619 22.6561 10.619H5.80503C4.16158 10.619 2.66088 11.4434 1.78901 12.8275C0.928709 14.1925 0.824547 15.868 1.50739 17.325L13.8332 45.0346C14.057 45.4947 14.3964 45.9395 14.6433 46.2347L14.8131 46.4226C15.2838 46.8942 15.7737 47.2316 16.4025 47.5191C17.313 47.9332 18.208 47.9831 18.5513 47.9831H36.5713L37.0459 47.9447C38.1723 47.7722 38.535 47.6035 38.7279 47.5153C39.5573 47.1396 40.0897 46.6603 40.3675 46.3612C40.7494 45.9625 41.0657 45.5139 41.3011 45.0269L41.3165 44.9924L41.3319 44.9579L58.2717 7.6897C58.9623 6.22888 58.862 4.54568 57.9978 3.18071H58.0017Z" fill="white"></path><path d="M37.362 43.7306L27.5672 21.8379L17.7723 43.7306C17.5254 44.2865 17.0123 44.2635 17.0123 44.2635C17.1782 44.4284 17.348 44.5741 17.6913 44.7275C18.0964 44.9115 18.5632 44.9115 18.5632 44.9115H36.5751C36.5751 44.9115 37.0418 44.9115 37.4469 44.7275C37.7903 44.5703 37.96 44.4284 38.1259 44.2635C38.1259 44.2635 37.6128 44.2865 37.3659 43.7306H37.362Z" fill="#0E4432"></path><path d="M18.158 44.8697C18.158 44.8697 18.1917 44.8771 18.2104 44.8771C18.1917 44.8771 18.1767 44.8734 18.158 44.8697Z" fill="#658045"></path><path d="M17.7725 43.7317L27.5678 21.8381L24.6126 14.9057C24.2538 14.1581 23.4938 13.6826 22.6567 13.6826H5.80525C4.58228 13.6826 3.78369 14.9518 4.31609 16.0445L16.6113 43.6933C16.7155 43.9081 16.8543 44.0959 17.0202 44.2608C17.055 44.2608 17.5372 44.2608 17.7764 43.7279L17.7725 43.7317Z" fill="#658045"></path><path d="M17.8879 44.8007C17.8879 44.8007 17.9034 44.8046 17.915 44.8084C17.9073 44.8084 17.8995 44.8046 17.8879 44.8007Z" fill="#658045"></path><path d="M17.3557 44.5439C17.3557 44.5439 17.3858 44.5626 17.4009 44.5701C17.3858 44.5626 17.3707 44.5514 17.3557 44.5439Z" fill="#658045"></path><path d="M37.2272 44.8085C37.1462 44.8315 37.0691 44.8545 36.9958 44.866C37.073 44.8506 37.1539 44.8315 37.2272 44.8085Z" fill="#1F7A78"></path><path d="M37.4703 44.7164C37.5359 44.6857 37.6015 44.655 37.6632 44.6167C37.6053 44.6474 37.5398 44.6819 37.4703 44.7164Z" fill="#1F7A78"></path><path d="M53.9863 4.03961H37.131C36.2977 4.03961 35.5377 4.51506 35.175 5.26274L27.5634 21.8382L37.3702 43.7548C37.6133 44.2686 38.0839 44.2648 38.1148 44.2648C38.2768 44.0999 38.4157 43.912 38.5199 43.6973L55.4754 6.40152C56.0078 5.30875 55.2054 4.03961 53.9824 4.03961H53.9863Z" fill="#1F7A78"></path><path d="M36.9226 44.8812C36.9226 44.8812 36.911 44.8888 36.9033 44.8888C36.9341 44.885 36.961 44.8773 36.9918 44.8697C36.9687 44.8735 36.9456 44.8773 36.9226 44.8812Z" fill="#1F7A78"></path><path d="M38.0452 44.3361C38.0452 44.3361 38.06 44.3213 38.0674 44.3176C38.06 44.325 38.0526 44.3324 38.0452 44.3361Z" fill="#1F7A78"></path><rect x="133.794" y="21.5641" width="6.7458" height="17.7169" fill="white"></rect><path d="M65.8098 13.7365H70.7028L77.1511 32.1921C77.4475 33.0429 77.6708 33.6011 77.7824 34.3403H77.8941C78.0057 33.6743 78.1905 33.0429 78.487 32.1921L84.8968 13.7365H89.8629L80.4503 40.0109H75.1877L65.8098 13.7365Z" fill="#012121"></path><path d="M88.8389 29.6744C88.8389 23.6688 93.7319 18.9644 99.9955 18.9644C106.259 18.9644 111.152 23.6727 111.152 29.8245C111.152 30.1595 111.114 30.7523 111.006 31.3067H93.8089C94.3287 34.1247 96.958 36.2344 100.072 36.2344C102.517 36.2344 104.557 35.0871 105.52 33.0083H110.636C109.193 37.4201 105.116 40.5692 99.9993 40.5692C93.7358 40.5692 88.8428 35.6761 88.8428 29.6744H88.8389ZM105.997 27.7842C105.589 25.3396 103.179 23.2992 99.9185 23.2992C96.6578 23.2992 94.2093 25.1894 93.8782 27.7842H105.997Z" fill="#012121"></path><path d="M114.886 19.5187H127.229V23.8535H119.556V40.0109H114.886V19.5149V19.5187Z" fill="#012121"></path><path d="M142.678 29.6744C142.678 23.6688 147.571 18.9644 153.834 18.9644C160.098 18.9644 164.991 23.6727 164.991 29.8245C164.991 30.1595 164.952 30.7523 164.844 31.3067H147.648C148.167 34.1247 150.797 36.2344 153.911 36.2344C156.356 36.2344 158.396 35.0871 159.358 33.0083H164.475C163.031 37.4201 158.954 40.5692 153.838 40.5692C147.574 40.5692 142.681 35.6761 142.681 29.6744H142.678ZM159.84 27.7842C159.432 25.3396 157.022 23.2992 153.761 23.2992C150.5 23.2992 148.052 25.1894 147.721 27.7842H159.84Z" fill="#012121"></path><path d="M173.941 26.5984L165.564 13.7365H171.05L176.424 22.6294L181.833 13.7365H187.319L178.942 26.5984L187.762 40.0148H182.276L176.421 30.5637L170.565 40.0148H165.079L173.937 26.5984H173.941Z" fill="#012121"></path><path d="M130.67 17.3937L135.328 13.7365V19.5226H140.352V23.8574H135.328V35.6761H140.241V40.0109H130.67V17.3899V17.3937Z" fill="#012121"></path><path d="M37.3909 43.9068L27.6165 21.9248L17.842 43.9068C17.5956 44.465 17.0836 44.4419 17.0836 44.4419C17.2491 44.6075 17.4185 44.7538 17.7611 44.9078C18.1653 45.0925 18.6312 45.0925 18.6312 45.0925H36.6056C36.6056 45.0925 37.0714 45.0925 37.4756 44.9078C37.8183 44.7499 37.9877 44.6075 38.1532 44.4419C38.1532 44.4419 37.6412 44.465 37.3948 43.9068H37.3909Z" fill="#0E4432"></path><path d="M18.2231 45.0463C18.2231 45.0463 18.2577 45.054 18.277 45.054C18.2577 45.054 18.2423 45.0502 18.2231 45.0463Z" fill="#658045"></path><path d="M17.842 43.9069L27.6165 21.9249L24.6676 14.9645C24.3096 14.2138 23.5512 13.7365 22.7158 13.7365H5.90012C4.67975 13.7365 3.88286 15.0107 4.41412 16.1079L16.6832 43.8684C16.7872 44.084 16.9258 44.2726 17.0913 44.4381C17.126 44.4381 17.6072 44.4381 17.8459 43.903L17.842 43.9069Z" fill="#658045"></path><path d="M17.9537 44.9809C17.9537 44.9809 17.9691 44.9847 17.9806 44.9886C17.9729 44.9886 17.9652 44.9847 17.9537 44.9809Z" fill="#658045"></path><path d="M17.4262 44.723C17.4262 44.723 17.457 44.7423 17.4724 44.75C17.457 44.7423 17.4416 44.7307 17.4262 44.723Z" fill="#658045"></path><path d="M37.2563 44.9847C37.1754 45.0078 37.0984 45.0309 37.0253 45.0425C37.1023 45.0271 37.1831 45.0078 37.2563 44.9847Z" fill="#1F7A78"></path><path d="M37.4988 44.8924C37.5643 44.8616 37.6297 44.8308 37.6913 44.7923C37.6336 44.8231 37.5681 44.8577 37.4988 44.8924Z" fill="#1F7A78"></path><path d="M53.9796 4.05433H37.16C36.3285 4.05433 35.5701 4.53169 35.2082 5.28239L27.6127 21.9248L37.3987 43.93C37.6412 44.4458 38.1109 44.442 38.1417 44.442C38.3034 44.2764 38.442 44.0878 38.5459 43.8722L55.4656 6.42192C55.9968 5.32474 55.1961 4.05048 53.9757 4.05048L53.9796 4.05433Z" fill="#1F7A78"></path><path d="M36.9521 45.0578C36.9521 45.0578 36.9406 45.0655 36.9329 45.0655C36.9637 45.0617 36.9906 45.054 37.0214 45.0463C36.9983 45.0501 36.9752 45.054 36.9521 45.0578Z" fill="#1F7A78"></path><path d="M38.0724 44.5113C38.0724 44.5113 38.0878 44.4959 38.0955 44.492C38.0878 44.4997 38.0801 44.5074 38.0724 44.5113Z" fill="#1F7A78"></path></svg>